<!--

MIT License

Copyright (c) 2020 Paweł Kuna

Permission is hereby granted, free of charge, to any person obtaining a copy
of this software and associated documentation files (the "Software"), to deal
in the Software without restriction, including without limitation the rights
to use, copy, modify, merge, publish, distribute, sublicense, and/or sell
copies of the Software, and to permit persons to whom the Software is
furnished to do so, subject to the following conditions:

The above copyright notice and this permission notice shall be included in all
copies or substantial portions of the Software.

THE SOFTWARE IS PROVIDED "AS IS", WITHOUT WARRANTY OF ANY KIND, EXPRESS OR
IMPLIED, INCLUDING BUT NOT LIMITED TO THE WARRANTIES OF MERCHANTABILITY,
FITNESS FOR A PARTICULAR PURPOSE AND NONINFRINGEMENT. IN NO EVENT SHALL THE
AUTHORS OR COPYRIGHT HOLDERS BE LIABLE FOR ANY CLAIM, DAMAGES OR OTHER
LIABILITY, WHETHER IN AN ACTION OF CONTRACT, TORT OR OTHERWISE, ARISING FROM,
OUT OF OR IN CONNECTION WITH THE SOFTWARE OR THE USE OR OTHER DEALINGS IN THE
SOFTWARE.

Source: https://github.com/tabler/tabler-icons

-->
<svg xmlns="http://www.w3.org/2000/svg">
  <!-- Header -->
  <symbol
    id="icon-blog"
    viewBox="0 0 24 24"
    stroke-width="2"
    stroke="currentColor"
    fill="none"
    stroke-linecap="round"
    stroke-linejoin="round"
  >
    <path stroke="none" d="M0 0h24v24H0z" fill="none"></path>
    <path
      d="M16 6h3a1 1 0 0 1 1 1v11a2 2 0 0 1 -4 0v-13a1 1 0 0 0 -1 -1h-10a1 1 0 0 0 -1 1v12a3 3 0 0 0 3 3h11"
    ></path>
    <path d="M8 8l4 0"></path>
    <path d="M8 12l4 0"></path>
    <path d="M8 16l4 0"></path>
  </symbol>
  <symbol
    id="icon-go-packages"
    viewBox="0 0 24 24"
    stroke-width="2"
    stroke="currentColor"
    fill="none"
    stroke-linecap="round"
    stroke-linejoin="round"
  >
    <path stroke="none" d="M0 0h24v24H0z" fill="none"></path>
    <path
      d="M15.695 14.305c1.061 1.06 2.953 .888 4.226 -.384c1.272 -1.273 1.444 -3.165 .384 -4.226c-1.061 -1.06 -2.953 -.888 -4.226 .384c-1.272 1.273 -1.444 3.165 -.384 4.226z"
    ></path>
    <path
      d="M12.68 9.233c-1.084 -.497 -2.545 -.191 -3.591 .846c-1.284 1.273 -1.457 3.165 -.388 4.226c1.07 1.06 2.978 .888 4.261 -.384a3.669 3.669 0 0 0 1.038 -1.921h-2.427"
    ></path>
    <path d="M5.5 15h-1.5"></path>
    <path d="M6 9h-2"></path>
    <path d="M5 12h-3"></path>
  </symbol>
  <symbol
    id="icon-watched"
    viewBox="0 0 24 24"
    stroke-width="2"
    stroke="currentColor"
    fill="none"
    stroke-linecap="round"
    stroke-linejoin="round"
  >
    <path stroke="none" d="M0 0h24v24H0z" fill="none"></path>
    <path
      d="M4 4m0 2a2 2 0 0 1 2 -2h12a2 2 0 0 1 2 2v12a2 2 0 0 1 -2 2h-12a2 2 0 0 1 -2 -2z"
    ></path>
    <path d="M8 4l0 16"></path>
    <path d="M16 4l0 16"></path>
    <path d="M4 8l4 0"></path>
    <path d="M4 16l4 0"></path>
    <path d="M4 12l16 0"></path>
    <path d="M16 8l4 0"></path>
    <path d="M16 16l4 0"></path>
  </symbol>
  <symbol
    id="icon-starplay"
    viewBox="0 0 24 24"
    fill="none"
    stroke="currentColor"
    stroke-width="2"
    stroke-linecap="round"
    stroke-linejoin="round"
  >
    <path stroke="none" d="M0 0h24v24H0z" fill="none" />
    <path
      d="M19.953 8.017l1.047 6.983v2a3 3 0 0 1 -3 3h-12a3 3 0 0 1 -3 -3v-2l1.245 -8.297a2 2 0 0 1 1.977 -1.703h3.778"
    />
    <path d="M3 15h18" />
    <path d="M13 3l5.5 1.5" />
    <path d="M15.75 3.75l-2 7" />
    <path d="M7 10.5c1.667 -.667 3.333 -.667 5 0c1.667 .667 3.333 .667 5 0" />
  </symbol>
  <!-- Elsewhere -->
  <symbol
    id="icon-github"
    viewBox="0 0 24 24"
    stroke-width="2"
    stroke="currentColor"
    fill="none"
    stroke-linecap="round"
    stroke-linejoin="round"
  >
    <path stroke="none" d="M0 0h24v24H0z" fill="none"></path>
    <path
      d="M9 19c-4.3 1.4 -4.3 -2.5 -6 -3m12 5v-3.5c0 -1 .1 -1.4 -.5 -2c2.8 -.3 5.5 -1.4 5.5 -6a4.6 4.6 0 0 0 -1.3 -3.2a4.2 4.2 0 0 0 -.1 -3.2s-1.1 -.3 -3.5 1.3a12.3 12.3 0 0 0 -6.2 0c-2.4 -1.6 -3.5 -1.3 -3.5 -1.3a4.2 4.2 0 0 0 -.1 3.2a4.6 4.6 0 0 0 -1.3 3.2c0 4.6 2.7 5.7 5.5 6c-.6 .6 -.6 1.2 -.5 2v3.5"
    ></path>
  </symbol>
  <symbol
    id="icon-telegram"
    viewBox="0 0 24 24"
    stroke-width="2"
    stroke="currentColor"
    fill="none"
    stroke-linecap="round"
    stroke-linejoin="round"
  >
    <path stroke="none" d="M0 0h24v24H0z" fill="none"></path>
    <path d="M15 10l-4 4l6 6l4 -16l-18 7l4 2l2 6l3 -4"></path>
  </symbol>
  <symbol id="icon-threads" viewBox="0 0 192 192" fill="currentColor">
    <path
      d="M141.537 88.9883C140.71 88.5919 139.87 88.2104 139.019 87.8451C137.537 60.5382 122.616 44.905 97.5619 44.745C97.4484 44.7443 97.3355 44.7443 97.222 44.7443C82.2364 44.7443 69.7731 51.1409 62.102 62.7807L75.881 72.2328C81.6116 63.5383 90.6052 61.6848 97.2286 61.6848C97.3051 61.6848 97.3819 61.6848 97.4576 61.6855C105.707 61.7381 111.932 64.1366 115.961 68.814C118.893 72.2193 120.854 76.925 121.825 82.8638C114.511 81.6207 106.601 81.2385 98.145 81.7233C74.3247 83.0954 59.0111 96.9879 60.0396 116.292C60.5615 126.084 65.4397 134.508 73.775 140.011C80.8224 144.663 89.899 146.938 99.3323 146.423C111.79 145.74 121.563 140.987 128.381 132.296C133.559 125.696 136.834 117.143 138.28 106.366C144.217 109.949 148.617 114.664 151.047 120.332C155.179 129.967 155.42 145.8 142.501 158.708C131.182 170.016 117.576 174.908 97.0135 175.059C74.2042 174.89 56.9538 167.575 45.7381 153.317C35.2355 139.966 29.8077 120.682 29.6052 96C29.8077 71.3178 35.2355 52.0336 45.7381 38.6827C56.9538 24.4249 74.2039 17.11 97.0132 16.9405C119.988 17.1113 137.539 24.4614 149.184 38.788C154.894 45.8136 159.199 54.6488 162.037 64.9503L178.184 60.6422C174.744 47.9622 169.331 37.0357 161.965 27.974C147.036 9.60668 125.202 0.195148 97.0695 0H96.9569C68.8816 0.19447 47.2921 9.6418 32.7883 28.0793C19.8819 44.4864 13.2244 67.3157 13.0007 95.9325L13 96L13.0007 96.0675C13.2244 124.684 19.8819 147.514 32.7883 163.921C47.2921 182.358 68.8816 191.806 96.9569 192H97.0695C122.03 191.827 139.624 185.292 154.118 170.811C173.081 151.866 172.51 128.119 166.26 113.541C161.776 103.087 153.227 94.5962 141.537 88.9883ZM98.4405 129.507C88.0005 130.095 77.1544 125.409 76.6196 115.372C76.2232 107.93 81.9158 99.626 99.0812 98.6368C101.047 98.5234 102.976 98.468 104.871 98.468C111.106 98.468 116.939 99.0737 122.242 100.233C120.264 124.935 108.662 128.946 98.4405 129.507Z"
    ></path>
  </symbol>
</svg>
