<!--

MIT License

Copyright (c) 2020 Paweł Kuna

Permission is hereby granted, free of charge, to any person obtaining a copy
of this software and associated documentation files (the "Software"), to deal
in the Software without restriction, including without limitation the rights
to use, copy, modify, merge, publish, distribute, sublicense, and/or sell
copies of the Software, and to permit persons to whom the Software is
furnished to do so, subject to the following conditions:

The above copyright notice and this permission notice shall be included in all
copies or substantial portions of the Software.

THE SOFTWARE IS PROVIDED "AS IS", WITHOUT WARRANTY OF ANY KIND, EXPRESS OR
IMPLIED, INCLUDING BUT NOT LIMITED TO THE WARRANTIES OF MERCHANTABILITY,
FITNESS FOR A PARTICULAR PURPOSE AND NONINFRINGEMENT. IN NO EVENT SHALL THE
AUTHORS OR COPYRIGHT HOLDERS BE LIABLE FOR ANY CLAIM, DAMAGES OR OTHER
LIABILITY, WHETHER IN AN ACTION OF CONTRACT, TORT OR OTHERWISE, ARISING FROM,
OUT OF OR IN CONNECTION WITH THE SOFTWARE OR THE USE OR OTHER DEALINGS IN THE
SOFTWARE.

Source: https://github.com/tabler/tabler-icons

-->
<svg xmlns="http://www.w3.org/2000/svg">
  <!-- Header -->
  <symbol id="icon-blog" viewBox="0 0 24 24" stroke-width="2" stroke="currentColor" fill="none" stroke-linecap="round" stroke-linejoin="round">
   <path stroke="none" d="M0 0h24v24H0z" fill="none"></path>
   <path d="M16 6h3a1 1 0 0 1 1 1v11a2 2 0 0 1 -4 0v-13a1 1 0 0 0 -1 -1h-10a1 1 0 0 0 -1 1v12a3 3 0 0 0 3 3h11"></path>
   <path d="M8 8l4 0"></path>
   <path d="M8 12l4 0"></path>
   <path d="M8 16l4 0"></path>
  </symbol>
  <symbol id="icon-go-packages" viewBox="0 0 24 24" stroke-width="2" stroke="currentColor" fill="none" stroke-linecap="round" stroke-linejoin="round">
   <path stroke="none" d="M0 0h24v24H0z" fill="none"></path>
   <path d="M15.695 14.305c1.061 1.06 2.953 .888 4.226 -.384c1.272 -1.273 1.444 -3.165 .384 -4.226c-1.061 -1.06 -2.953 -.888 -4.226 .384c-1.272 1.273 -1.444 3.165 -.384 4.226z"></path>
   <path d="M12.68 9.233c-1.084 -.497 -2.545 -.191 -3.591 .846c-1.284 1.273 -1.457 3.165 -.388 4.226c1.07 1.06 2.978 .888 4.261 -.384a3.669 3.669 0 0 0 1.038 -1.921h-2.427"></path>
   <path d="M5.5 15h-1.5"></path>
   <path d="M6 9h-2"></path>
   <path d="M5 12h-3"></path>
  </symbol>
  <symbol id="icon-watched" viewBox="0 0 24 24" stroke-width="2" stroke="currentColor" fill="none" stroke-linecap="round" stroke-linejoin="round">
   <path stroke="none" d="M0 0h24v24H0z" fill="none"></path>
   <path d="M4 4m0 2a2 2 0 0 1 2 -2h12a2 2 0 0 1 2 2v12a2 2 0 0 1 -2 2h-12a2 2 0 0 1 -2 -2z"></path>
   <path d="M8 4l0 16"></path>
   <path d="M16 4l0 16"></path>
   <path d="M4 8l4 0"></path>
   <path d="M4 16l4 0"></path>
   <path d="M4 12l16 0"></path>
   <path d="M16 8l4 0"></path>
   <path d="M16 16l4 0"></path>
  </symbol>
  <!-- Elsewhere -->
  <symbol id="icon-github" viewBox="0 0 24 24" stroke-width="2" stroke="currentColor" fill="none" stroke-linecap="round" stroke-linejoin="round">
    <path stroke="none" d="M0 0h24v24H0z" fill="none"></path>
    <path d="M9 19c-4.3 1.4 -4.3 -2.5 -6 -3m12 5v-3.5c0 -1 .1 -1.4 -.5 -2c2.8 -.3 5.5 -1.4 5.5 -6a4.6 4.6 0 0 0 -1.3 -3.2a4.2 4.2 0 0 0 -.1 -3.2s-1.1 -.3 -3.5 1.3a12.3 12.3 0 0 0 -6.2 0c-2.4 -1.6 -3.5 -1.3 -3.5 -1.3a4.2 4.2 0 0 0 -.1 3.2a4.6 4.6 0 0 0 -1.3 3.2c0 4.6 2.7 5.7 5.5 6c-.6 .6 -.6 1.2 -.5 2v3.5"></path>
  </symbol>
  <symbol id="icon-telegram" viewBox="0 0 24 24" stroke-width="2" stroke="currentColor" fill="none" stroke-linecap="round" stroke-linejoin="round">
    <path stroke="none" d="M0 0h24v24H0z" fill="none"></path>
    <path d="M15 10l-4 4l6 6l4 -16l-18 7l4 2l2 6l3 -4"></path>
  </symbol>
  <symbol id="icon-bluesky" viewBox="0 0 24 24" stroke-width="2" stroke="currentColor" fill="none" stroke-linecap="round" stroke-linejoin="round">
    <path stroke="none" d="M0 0h24v24H0z" fill="none"></path>
    <path d="M12 2c-.218 0 -.432 .002 -.642 .005l-.616 .017l-.299 .013l-.579 .034l-.553 .046c-4.785 .464 -6.732 2.411 -7.196 7.196l-.046 .553l-.034 .579c-.005 .098 -.01 .198 -.013 .299l-.017 .616l-.004 .318l-.001 .324c0 .218 .002 .432 .005 .642l.017 .616l.013 .299l.034 .579l.046 .553c.464 4.785 2.411 6.732 7.196 7.196l.553 .046l.579 .034c.098 .005 .198 .01 .299 .013l.616 .017l.642 .005l.642 -.005l.616 -.017l.299 -.013l.579 -.034l.553 -.046c4.785 -.464 6.732 -2.411 7.196 -7.196l.046 -.553l.034 -.579c.005 -.098 .01 -.198 .013 -.299l.017 -.616l.005 -.642l-.005 -.642l-.017 -.616l-.013 -.299l-.034 -.579l-.046 -.553c-.464 -4.785 -2.411 -6.732 -7.196 -7.196l-.553 -.046l-.579 -.034a28.058 28.058 0 0 0 -.299 -.013l-.616 -.017l-.318 -.004l-.324 -.001z" stroke-width="0" fill="currentColor"></path>
  </symbol>
</svg>
