<!--

MIT License

Copyright (c) 2020 Paweł Kuna

Permission is hereby granted, free of charge, to any person obtaining a copy
of this software and associated documentation files (the "Software"), to deal
in the Software without restriction, including without limitation the rights
to use, copy, modify, merge, publish, distribute, sublicense, and/or sell
copies of the Software, and to permit persons to whom the Software is
furnished to do so, subject to the following conditions:

The above copyright notice and this permission notice shall be included in all
copies or substantial portions of the Software.

THE SOFTWARE IS PROVIDED "AS IS", WITHOUT WARRANTY OF ANY KIND, EXPRESS OR
IMPLIED, INCLUDING BUT NOT LIMITED TO THE WARRANTIES OF MERCHANTABILITY,
FITNESS FOR A PARTICULAR PURPOSE AND NONINFRINGEMENT. IN NO EVENT SHALL THE
AUTHORS OR COPYRIGHT HOLDERS BE LIABLE FOR ANY CLAIM, DAMAGES OR OTHER
LIABILITY, WHETHER IN AN ACTION OF CONTRACT, TORT OR OTHERWISE, ARISING FROM,
OUT OF OR IN CONNECTION WITH THE SOFTWARE OR THE USE OR OTHER DEALINGS IN THE
SOFTWARE.

Source: https://github.com/tabler/tabler-icons

-->
<svg xmlns="http://www.w3.org/2000/svg">
  <!-- Header -->
  <symbol id="icon-home" viewBox="0 0 24 24" stroke-width="2" stroke="currentColor" fill="none" stroke-linecap="round" stroke-linejoin="round">
    <path stroke="none" d="M0 0h24v24H0z" fill="none"></path>
    <polyline points="5 12 3 12 12 3 21 12 19 12"></polyline>
    <path d="M5 12v7a2 2 0 0 0 2 2h10a2 2 0 0 0 2 -2v-7"></path>
    <path d="M9 21v-6a2 2 0 0 1 2 -2h2a2 2 0 0 1 2 2v6"></path>
  </symbol>
  <symbol id="icon-watched" viewBox="0 0 24 24" stroke-width="2" stroke="currentColor" fill="none" stroke-linecap="round" stroke-linejoin="round">
    <path stroke="none" d="M0 0h24v24H0z" fill="none"></path>
    <rect x="3" y="7" width="18" height="13" rx="2"></rect>
    <polyline points="16 3 12 7 8 3"></polyline>
  </symbol>
  <!-- Elsewhere -->
  <symbol id="icon-github" viewBox="0 0 24 24" stroke-width="2" stroke="currentColor" fill="none" stroke-linecap="round" stroke-linejoin="round">
    <path stroke="none" d="M0 0h24v24H0z" fill="none"></path>
    <path d="M9 19c-4.3 1.4 -4.3 -2.5 -6 -3m12 5v-3.5c0 -1 .1 -1.4 -.5 -2c2.8 -.3 5.5 -1.4 5.5 -6a4.6 4.6 0 0 0 -1.3 -3.2a4.2 4.2 0 0 0 -.1 -3.2s-1.1 -.3 -3.5 1.3a12.3 12.3 0 0 0 -6.2 0c-2.4 -1.6 -3.5 -1.3 -3.5 -1.3a4.2 4.2 0 0 0 -.1 3.2a4.6 4.6 0 0 0 -1.3 3.2c0 4.6 2.7 5.7 5.5 6c-.6 .6 -.6 1.2 -.5 2v3.5"></path>
  </symbol>
  <symbol id="icon-steam" viewBox="0 0 24 24" stroke-width="2" stroke="currentColor" fill="none" stroke-linecap="round" stroke-linejoin="round">
    <path stroke="none" d="M0 0h24v24H0z" fill="none"></path>
    <path d="M16.5 5a4.5 4.5 0 1 1 -.653 8.953l-4.347 3.009l0 .038a3 3 0 0 1 -2.824 2.995l-.176 .005a3 3 0 0 1 -2.94 -2.402l-2.56 -1.098v-3.5l3.51 1.755a2.989 2.989 0 0 1 2.834 -.635l2.727 -3.818a4.5 4.5 0 0 1 4.429 -5.302z"></path>
    <circle fill="currentColor" cx="16.5" cy="9.5" r="1"></circle>
  </symbol>
  <symbol id="icon-telegram" viewBox="0 0 24 24" stroke-width="2" stroke="currentColor" fill="none" stroke-linecap="round" stroke-linejoin="round">
    <path stroke="none" d="M0 0h24v24H0z" fill="none"></path>
    <path d="M15 10l-4 4l6 6l4 -16l-18 7l4 2l2 6l3 -4"></path>
  </symbol>
  <!-- Source: https://github.com/mastodon/mastodon/blob/04b4b541f81e82f4ee3c8e5283123450df949a4b/app/javascript/images/logo_transparent_black.svg -->
  <symbol id="icon-mastodon" viewBox="0 0 216.4144 232.00976">
    <path d="M107.86523 0C78.203984.2425 49.672422 3.4535937 33.044922 11.089844c0 0-32.97656262 14.752031-32.97656262 65.082031 0 11.525-.224375 25.306175.140625 39.919925 1.19750002 49.22 9.02375002 97.72843 54.53124962 109.77343 20.9825 5.55375 38.99711 6.71547 53.505856 5.91797 26.31125-1.45875 41.08203-9.38867 41.08203-9.38867l-.86914-19.08984s-18.80171 5.92758-39.91796 5.20508c-20.921254-.7175-43.006879-2.25516-46.390629-27.94141-.3125-2.25625-.46875-4.66938-.46875-7.20313 0 0 20.536953 5.0204 46.564449 6.21289 15.915.73001 30.8393-.93343 45.99805-2.74218 29.07-3.47125 54.38125-21.3818 57.5625-37.74805 5.0125-25.78125 4.59961-62.916015 4.59961-62.916015 0-50.33-32.97461-65.082031-32.97461-65.082031C166.80539 3.4535938 138.255.2425 108.59375 0h-.72852zM74.296875 39.326172c12.355 0 21.710234 4.749297 27.896485 14.248047l6.01367 10.080078 6.01563-10.080078c6.185-9.49875 15.54023-14.248047 27.89648-14.248047 10.6775 0 19.28156 3.753672 25.85156 11.076172 6.36875 7.3225 9.53907 17.218828 9.53907 29.673828v60.941408h-24.14454V81.869141c0-12.46875-5.24453-18.798829-15.73828-18.798829-11.6025 0-17.41797 7.508516-17.41797 22.353516v32.375002H96.207031V85.423828c0-14.845-5.815468-22.353515-17.417969-22.353516-10.49375 0-15.740234 6.330079-15.740234 18.798829v59.148439H38.904297V80.076172c0-12.455 3.171016-22.351328 9.541015-29.673828 6.568751-7.3225 15.172813-11.076172 25.851563-11.076172z" fill="currentColor"/>
  </symbol>
</svg>
